<svg width="205" height="28" viewBox="0 0 205 28" fill="none" xmlns="http://www.w3.org/2000/svg">
<path d="M0.2 27V6.6H3.2V11.8H3.4V27H0.2ZM3.4 16.36L2.88 11.52C3.36 9.78667 4.21333 8.46667 5.44 7.56C6.66667 6.65333 8.08 6.2 9.68 6.2C10.3467 6.2 10.8 6.25333 11.04 6.36V9.44C10.9067 9.38667 10.72 9.36 10.48 9.36C10.24 9.33333 9.94667 9.32 9.6 9.32C7.57333 9.32 6.02667 9.93333 4.96 11.16C3.92 12.36 3.4 14.0933 3.4 16.36ZM22.8569 27.4C20.9102 27.4 19.1902 26.9467 17.6969 26.04C16.2035 25.1067 15.0302 23.84 14.1769 22.24C13.3235 20.64 12.8969 18.8 12.8969 16.72C12.8969 14.64 13.3102 12.8133 14.1369 11.24C14.9902 9.64 16.1769 8.4 17.6969 7.52C19.2169 6.64 20.9635 6.2 22.9369 6.2C24.8302 6.2 26.4702 6.61333 27.8569 7.44C29.2702 8.26667 30.3502 9.42667 31.0969 10.92C31.8702 12.4133 32.2569 14.1733 32.2569 16.2C32.2569 16.4667 32.2435 16.72 32.2169 16.96C32.2169 17.2 32.1902 17.4667 32.1369 17.76H15.2969V15.08H30.1769L29.1369 16.56C29.1369 14.1067 28.5902 12.2267 27.4969 10.92C26.4302 9.58667 24.9102 8.92 22.9369 8.92C20.9102 8.92 19.2702 9.62667 18.0169 11.04C16.7902 12.4267 16.1769 14.3067 16.1769 16.68C16.1769 19.1067 16.7902 21.0533 18.0169 22.52C19.2702 23.96 20.9369 24.68 23.0169 24.68C24.3235 24.68 25.4702 24.4 26.4569 23.84C27.4435 23.2533 28.1635 22.4267 28.6169 21.36H31.6569C30.9902 23.2267 29.8702 24.7067 28.2969 25.8C26.7502 26.8667 24.9369 27.4 22.8569 27.4ZM37.075 27V6.6H40.075V11.4H40.275V27H37.075ZM51.675 27V13.64C51.675 12.0933 51.2883 10.9333 50.515 10.16C49.7417 9.38667 48.595 9 47.075 9C45.7417 9 44.555 9.29333 43.515 9.88C42.5017 10.4667 41.7017 11.28 41.115 12.32C40.555 13.36 40.275 14.5733 40.275 15.96L39.755 11.12C40.4483 9.6 41.5017 8.4 42.915 7.52C44.355 6.64 45.9817 6.2 47.795 6.2C49.9283 6.2 51.635 6.81333 52.915 8.04C54.2217 9.24 54.875 10.8267 54.875 12.8V27H51.675ZM68.6334 27.36C66.3668 27.36 64.7134 26.8533 63.6734 25.84C62.6601 24.8 62.1534 23.3067 62.1534 21.36V1.84L65.3534 0.639998V21.32C65.3534 22.4667 65.6468 23.3067 66.2334 23.84C66.8201 24.3733 67.7801 24.64 69.1134 24.64C69.6468 24.64 70.1001 24.6133 70.4734 24.56C70.8734 24.48 71.1934 24.3867 71.4334 24.28V27C71.1668 27.1067 70.7801 27.1867 70.2734 27.24C69.7934 27.32 69.2468 27.36 68.6334 27.36ZM57.9534 9.32V6.6H71.4334V9.32H57.9534ZM88.0716 27C87.9649 26.5467 87.8849 26.0267 87.8316 25.44C87.8049 24.8533 87.7916 24.1067 87.7916 23.2H87.5916V13.44C87.5916 11.8933 87.2316 10.76 86.5116 10.04C85.8182 9.29333 84.6849 8.92 83.1116 8.92C81.5649 8.92 80.3249 9.24 79.3916 9.88C78.4849 10.4933 77.9782 11.3733 77.8716 12.52H74.7916C74.9249 10.5467 75.7516 9 77.2716 7.88C78.7916 6.76 80.7782 6.2 83.2316 6.2C85.7649 6.2 87.6449 6.8 88.8716 8C90.0982 9.2 90.7116 11 90.7116 13.4V23.2C90.7116 23.7867 90.7516 24.4 90.8316 25.04C90.9116 25.6533 91.0182 26.3067 91.1516 27H88.0716ZM81.0716 27.4C78.9649 27.4 77.2849 26.8933 76.0316 25.88C74.8049 24.84 74.1916 23.4267 74.1916 21.64C74.1916 19.8533 74.8049 18.4667 76.0316 17.48C77.2582 16.4933 79.0449 15.8 81.3916 15.4L88.5116 14.2V16.84L81.8716 17.88C80.3782 18.12 79.2449 18.52 78.4716 19.08C77.6982 19.64 77.3116 20.4533 77.3116 21.52C77.3116 22.56 77.6582 23.3467 78.3516 23.88C79.0716 24.4133 80.1249 24.68 81.5116 24.68C83.2982 24.68 84.7516 24.28 85.8716 23.48C87.0182 22.6533 87.5916 21.5867 87.5916 20.28L88.1116 23.12C87.6849 24.48 86.8449 25.5333 85.5916 26.28C84.3649 27.0267 82.8582 27.4 81.0716 27.4ZM102.058 27L93.6184 6.6H97.0584L104.098 24.84H102.818L109.818 6.6H113.098L104.658 27H102.058ZM124.888 27.4C122.941 27.4 121.221 26.9467 119.728 26.04C118.235 25.1067 117.061 23.84 116.208 22.24C115.355 20.64 114.928 18.8 114.928 16.72C114.928 14.64 115.341 12.8133 116.168 11.24C117.021 9.64 118.208 8.4 119.728 7.52C121.248 6.64 122.995 6.2 124.968 6.2C126.861 6.2 128.501 6.61333 129.888 7.44C131.301 8.26667 132.381 9.42667 133.128 10.92C133.901 12.4133 134.288 14.1733 134.288 16.2C134.288 16.4667 134.275 16.72 134.248 16.96C134.248 17.2 134.221 17.4667 134.168 17.76H117.328V15.08H132.208L131.168 16.56C131.168 14.1067 130.621 12.2267 129.528 10.92C128.461 9.58667 126.941 8.92 124.968 8.92C122.941 8.92 121.301 9.62667 120.048 11.04C118.821 12.4267 118.208 14.3067 118.208 16.68C118.208 19.1067 118.821 21.0533 120.048 22.52C121.301 23.96 122.968 24.68 125.048 24.68C126.355 24.68 127.501 24.4 128.488 23.84C129.475 23.2533 130.195 22.4267 130.648 21.36H133.688C133.021 23.2267 131.901 24.7067 130.328 25.8C128.781 26.8667 126.968 27.4 124.888 27.4ZM139.106 27V6.6H142.106V11.4H142.306V27H139.106ZM153.706 27V13.64C153.706 12.0933 153.32 10.9333 152.546 10.16C151.773 9.38667 150.626 9 149.106 9C147.773 9 146.586 9.29333 145.546 9.88C144.533 10.4667 143.733 11.28 143.146 12.32C142.586 13.36 142.306 14.5733 142.306 15.96L141.786 11.12C142.48 9.6 143.533 8.4 144.946 7.52C146.386 6.64 148.013 6.2 149.826 6.2C151.96 6.2 153.666 6.81333 154.946 8.04C156.253 9.24 156.906 10.8267 156.906 12.8V27H153.706ZM169.692 27.4C168.358 27.4 167.172 27.1333 166.132 26.6C165.092 26.04 164.278 25.2667 163.692 24.28C163.105 23.2667 162.812 22.1067 162.812 20.8V6.6H166.012V19.96C166.012 21.5067 166.385 22.6667 167.132 23.44C167.905 24.2133 168.998 24.6 170.412 24.6C171.692 24.6 172.825 24.3067 173.812 23.72C174.798 23.1333 175.572 22.32 176.132 21.28C176.718 20.2133 177.012 19 177.012 17.64L177.532 22.48C176.865 24 175.825 25.2 174.412 26.08C172.998 26.96 171.425 27.4 169.692 27.4ZM177.212 27V22.2H177.012V6.6H180.212V27H177.212ZM194.888 27.4C192.941 27.4 191.221 26.9467 189.728 26.04C188.235 25.1067 187.061 23.84 186.208 22.24C185.355 20.64 184.928 18.8 184.928 16.72C184.928 14.64 185.341 12.8133 186.168 11.24C187.021 9.64 188.208 8.4 189.728 7.52C191.248 6.64 192.995 6.2 194.968 6.2C196.861 6.2 198.501 6.61333 199.888 7.44C201.301 8.26667 202.381 9.42667 203.128 10.92C203.901 12.4133 204.288 14.1733 204.288 16.2C204.288 16.4667 204.275 16.72 204.248 16.96C204.248 17.2 204.221 17.4667 204.168 17.76H187.328V15.08H202.208L201.168 16.56C201.168 14.1067 200.621 12.2267 199.528 10.92C198.461 9.58667 196.941 8.92 194.968 8.92C192.941 8.92 191.301 9.62667 190.048 11.04C188.821 12.4267 188.208 14.3067 188.208 16.68C188.208 19.1067 188.821 21.0533 190.048 22.52C191.301 23.96 192.968 24.68 195.048 24.68C196.355 24.68 197.501 24.4 198.488 23.84C199.475 23.2533 200.195 22.4267 200.648 21.36H203.688C203.021 23.2267 201.901 24.7067 200.328 25.8C198.781 26.8667 196.968 27.4 194.888 27.4Z" fill="#3F3BB3"/>
</svg>
